<svg xmlns="http://www.w3.org/2000/svg" width="32" height="32" fill="none"><rect width="32" height="32" fill="#000" rx="16"/><rect width="31" height="31" x=".5" y=".5" stroke="#000" stroke-opacity=".1" rx="15.5"/><path fill="#0ACF83" d="M13.667 24a2.668 2.668 0 0 0 2.666-2.667v-2.666h-2.666a2.668 2.668 0 0 0 0 5.333Z"/><path fill="#A259FF" d="M11 16a2.668 2.668 0 0 1 2.667-2.667h2.666v5.334h-2.666A2.668 2.668 0 0 1 11 16Z"/><path fill="#F24E1E" d="M11 10.667A2.668 2.668 0 0 1 13.667 8h2.666v5.333h-2.666A2.668 2.668 0 0 1 11 10.667Z"/><path fill="#FF7262" d="M16.333 8H19a2.668 2.668 0 0 1 0 5.333h-2.667V8Z"/><path fill="#1ABCFE" d="M21.666 16a2.668 2.668 0 0 1-5.333 0 2.668 2.668 0 0 1 5.333 0Z"/></svg>